<?xml version="1.0" encoding="utf-8"?>
<!-- Generator: Adobe Illustrator 16.0.0, SVG Export Plug-In . SVG Version: 6.00 Build 0)  -->
<!DOCTYPE svg PUBLIC "-//W3C//DTD SVG 1.1//EN" "http://www.w3.org/Graphics/SVG/1.1/DTD/svg11.dtd">
<svg version="1.1" id="Layer_1" xmlns="http://www.w3.org/2000/svg" xmlns:xlink="http://www.w3.org/1999/xlink" x="0px" y="0px"
	 width="130px" height="131px" viewBox="0 0 130 131" enable-background="new 0 0 130 131" xml:space="preserve">
<g>
	<ellipse opacity="0.95" fill="#FFFFFF" cx="70.028" cy="59.045" rx="43.634" ry="43.976"/>
	<g>
		<polygon fill-rule="evenodd" clip-rule="evenodd" fill="#404041" points="38.618,48.322 39.606,45.96 39.16,45.775 38.362,47.676 
			33.664,45.713 33.526,45.652 33.337,46.109 38.481,48.264 		"/>
		<path fill-rule="evenodd" clip-rule="evenodd" fill="#404041" d="M40.021,45.057l0.264-0.438l-0.991-1.109l1.025-1.758
			l1.452,0.328l0.257-0.438l-6.333-1.415l4.193,4.68L40.021,45.057z M37.076,41.031l2.737,0.61l-0.867,1.485L37.076,41.031z"/>
		<polygon fill-rule="evenodd" clip-rule="evenodd" fill="#404041" points="42.946,40.434 43.236,40.041 38.766,36.71 
			38.648,36.615 38.354,37.011 42.826,40.344 		"/>
		<polygon fill-rule="evenodd" clip-rule="evenodd" fill="#404041" points="44.532,38.41 46.251,36.527 45.887,36.198 
			44.498,37.721 40.739,34.285 40.622,34.188 40.302,34.549 44.419,38.311 		"/>
		<path fill-rule="evenodd" clip-rule="evenodd" fill="#404041" d="M47.327,35.488l-0.568-1.377l1.553-1.305l1.269,0.792l0.38-0.341
			l-5.489-3.432l2.462,5.994L47.327,35.488z M45.499,31.041l2.379,1.487l-1.316,1.112L45.499,31.041z"/>
		<polygon fill-rule="evenodd" clip-rule="evenodd" fill="#404041" points="53.358,31.064 53.793,30.845 52.534,28.438 
			54.697,27.311 54.478,26.867 52.31,28 51.369,26.195 53.696,24.98 53.473,24.548 50.708,25.99 53.292,30.936 		"/>
		<path fill-rule="evenodd" clip-rule="evenodd" fill="#404041" d="M57.643,28.979l0.464-0.158l-0.471-1.341l0.551-0.191
			c0.077-0.027,0.15-0.053,0.221-0.094l1.77,0.854l0.053,0.03l0.656-0.224l-2.004-0.965c0.657-0.567,0.914-1.499,0.617-2.348
			c-0.113-0.319-0.294-0.603-0.537-0.837c-0.581-0.559-1.449-0.746-2.207-0.48l-1.006,0.354l1.844,5.261L57.643,28.979z
			 M56.374,23.875l0.545-0.191c0.598-0.209,1.251-0.066,1.702,0.366c0.193,0.185,0.331,0.408,0.417,0.663
			c0.154,0.419,0.123,0.868-0.063,1.271c-0.193,0.392-0.534,0.698-0.958,0.847l-0.544,0.186L56.374,23.875z"/>
		<path fill-rule="evenodd" clip-rule="evenodd" fill="#404041" d="M62.57,26.002l1.997-0.383l0.661,1.216l0.054,0.097l0.5-0.097
			l-3.104-5.691l-0.794,6.44l0.504-0.1L62.57,26.002z M62.975,22.705l1.346,2.467l-1.687,0.321L62.975,22.705z"/>
		<polygon fill-rule="evenodd" clip-rule="evenodd" fill="#404041" points="67.228,26.535 67.228,26.686 67.722,26.674 
			67.548,22.173 70.895,27.02 70.67,20.977 70.664,20.828 70.17,20.844 70.346,25.353 66.998,20.498 		"/>
		<polygon fill-rule="evenodd" clip-rule="evenodd" fill="#404041" points="73.633,24.789 74.246,24.252 76.166,27.037 
			76.206,27.088 76.857,27.175 74.613,23.938 77.445,21.48 76.811,21.395 73.726,24.073 74.105,21.053 73.622,20.987 72.897,26.664 
			73.381,26.732 		"/>
		<polygon fill-rule="evenodd" clip-rule="evenodd" fill="#404041" points="62.147,69.571 61.692,47.605 59.94,45.82 60.464,71.101 
			60.468,71.317 68.272,71.157 66.747,69.476 		"/>
		<path fill-rule="evenodd" clip-rule="evenodd" fill="#404041" d="M82.012,70.65l-0.016-0.706
			c-0.711-0.029-2.584-0.112-3.996-1.997c0,0-0.08,0.002-6.422-8.566c5.391-6.936,9.634-7.148,10.381-7.247l-0.017-0.706
			l-10.107,0.213l0.017,0.701c5.404-0.276-0.42,5.881-0.42,5.881l-3.823,4.326c0,0,1.111,1.636,2.404,3.442
			c2.871,4.098,3.259,4.84,6.134,4.781L82.012,70.65z"/>
		<path fill-rule="evenodd" clip-rule="evenodd" fill="#404041" d="M62.276,96.022c-9.468-2.133-17.879-8.09-23.084-16.34
			c-3.559-5.652-5.512-12.186-5.655-18.895c-0.033-1.882,0.071-3.77,0.31-5.63c0.027-0.221-0.126-0.424-0.346-0.448
			c-0.221-0.032-0.422,0.122-0.451,0.34c-0.251,1.903-0.354,3.839-0.314,5.753c0.145,6.855,2.145,13.532,5.783,19.306
			c1.633,2.596,3.586,4.97,5.775,7.074c4.932,4.73,11.109,8.111,17.803,9.625c0.217,0.047,0.434-0.089,0.48-0.306
			C62.624,96.286,62.479,96.071,62.276,96.022z"/>
		<path fill-rule="evenodd" clip-rule="evenodd" fill="#404041" d="M84.096,25.723c5.615,2.234,10.646,5.879,14.57,10.508
			c3.493,4.141,6.073,9.087,7.459,14.312c0.018,0.07,0.057,0.141,0.104,0.189c0.1,0.092,0.244,0.131,0.385,0.093
			c0.213-0.056,0.34-0.274,0.287-0.491c-1.416-5.335-4.051-10.392-7.624-14.619c-3.996-4.74-9.15-8.451-14.88-10.74
			c-0.21-0.081-0.438,0.02-0.521,0.228C83.792,25.408,83.893,25.643,84.096,25.723z"/>
		<path fill-rule="evenodd" clip-rule="evenodd" fill="#404041" d="M78.574,94.075l-0.014-0.056
			c0.631-0.301,1.104-0.681,0.935-1.424c-0.163-0.7-1.011-0.71-1.491-0.599l-2.248,0.523l0.006,0.047
			c0.124-0.021,0.334-0.037,0.484-0.011c0.176,0.023,0.252,0.146,0.287,0.293l0.822,3.55c0.033,0.145,0.018,0.268-0.131,0.363
			c-0.076,0.05-0.35,0.164-0.463,0.199l0.009,0.049l2.288-0.532c0.621-0.147,1.422-0.699,1.229-1.544
			C80.086,94.075,79.125,93.979,78.574,94.075z M77.125,92.294c0.157-0.047,0.438-0.115,0.545-0.139
			c0.406-0.1,0.914,0.1,1.066,0.746c0.128,0.558-0.012,1.105-0.736,1.271l-0.41,0.097L77.125,92.294z M78.758,96.464
			c-0.451,0.102-0.604,0.033-0.719-0.254l-0.43-1.844c0.117-0.04,0.443-0.121,0.559-0.146c0.68-0.159,1.157,0.24,1.287,0.772
			C79.572,95.527,79.532,96.276,78.758,96.464z"/>
		<path fill-rule="evenodd" clip-rule="evenodd" fill="#404041" d="M84.922,94.34c-0.127-0.032-0.201-0.12-0.268-0.247l-0.908-2.363
			l-0.064-0.025l-1.067,0.499l0.013,0.042c0.168-0.059,0.344-0.099,0.441-0.077c0.13,0.028,0.223,0.126,0.283,0.253l0.705,1.812
			c-0.035,0.167-0.134,0.546-0.599,0.728c-0.264,0.101-0.577-0.024-0.743-0.46l-0.799-2.057l-0.061-0.035l-0.98,0.471l0.01,0.039
			c0.12-0.037,0.258-0.043,0.356-0.022c0.124,0.032,0.222,0.126,0.28,0.25l0.541,1.405c0.233,0.588,0.638,0.932,1.219,0.703
			c0.54-0.204,0.668-0.544,0.814-0.875l0.021-0.005l0.153,0.376l0.057,0.027l0.955-0.443l-0.011-0.04
			C85.158,94.331,85.018,94.362,84.922,94.34z"/>
		<path fill-rule="evenodd" clip-rule="evenodd" fill="#404041" d="M87.946,92.892c-0.671,0.357-1.216-0.154-1.634-0.92
			l-0.043-0.103l1.77-0.945l-0.029-0.052c-0.309-0.576-0.886-0.947-1.704-0.512c-0.79,0.423-0.88,1.35-0.504,2.062
			c0.421,0.786,1.189,1.217,2.084,0.739c0.501-0.267,0.741-0.779,0.725-1.309l-0.061-0.01
			C88.513,92.328,88.413,92.643,87.946,92.892z M86.33,90.422c0.457-0.246,0.838,0.264,1.088,0.741l-1.186,0.646
			C85.922,91.181,85.963,90.617,86.33,90.422z"/>
		<path fill-rule="evenodd" clip-rule="evenodd" fill="#404041" d="M92.74,89.836c-0.13,0.022-0.243-0.048-0.327-0.165l-0.945-1.351
			c-0.374-0.518-0.852-0.7-1.362-0.343c-0.477,0.334-0.514,0.736-0.584,1.086l-0.007,0.003l-0.274-0.396l-0.039-0.002l-0.854,0.695
			l0.022,0.029c0.104-0.063,0.222-0.113,0.32-0.115c0.128,0,0.262,0.08,0.352,0.188l1.229,1.743
			c0.084,0.123,0.104,0.249,0.023,0.352c-0.061,0.077-0.117,0.133-0.21,0.212l0.022,0.04l1.299-0.916l-0.023-0.039
			c-0.096,0.058-0.184,0.113-0.294,0.127c-0.13,0.031-0.249-0.034-0.333-0.156l-1.148-1.634c-0.03-0.169,0.029-0.562,0.434-0.849
			c0.236-0.166,0.604-0.111,0.871,0.269l1.012,1.431c0.088,0.127,0.104,0.25,0.023,0.354c-0.06,0.082-0.141,0.145-0.23,0.224
			l0.023,0.04l1.303-0.915l-0.027-0.037C92.91,89.772,92.84,89.814,92.74,89.836z"/>
		<path fill-rule="evenodd" clip-rule="evenodd" fill="#404041" d="M93.131,85.513c-0.701,0.641-0.711,1.554-0.063,2.26
			c0.667,0.73,1.608,0.705,2.206,0.152c0.752-0.683,0.658-1.617,0.057-2.281C94.723,84.978,93.828,84.88,93.131,85.513z
			 M95.258,87.85c-0.468,0.427-1.136,0.062-1.727-0.577c-0.479-0.52-0.879-1.234-0.357-1.704c0.484-0.44,1.139-0.037,1.656,0.535
			C95.424,86.751,95.701,87.444,95.258,87.85z"/>
		<path fill-rule="evenodd" clip-rule="evenodd" fill="#404041" d="M96.84,83.541c-0.504,0.299-0.744,0.442-1.031,0.188
			c-0.188-0.163-0.313-0.492-0.038-0.803c0.315-0.363,0.893-0.305,1.273-0.156l0.032-0.041L96.35,82.15l-0.037,0.043l0.061,0.221
			c-0.197,0.045-0.422,0.197-0.657,0.468c-0.411,0.473-0.374,1.014,0,1.339c0.437,0.38,0.94,0.186,1.321-0.056
			c0.568-0.357,0.797-0.402,1.065-0.17c0.247,0.221,0.341,0.567,0.03,0.926c-0.352,0.399-1.191,0.288-1.51,0.144l-0.033,0.041
			l0.809,0.665l0.043-0.045l-0.098-0.243c0.164-0.013,0.537-0.171,0.814-0.492c0.422-0.483,0.478-1.094,0.027-1.491
			C97.769,83.139,97.341,83.249,96.84,83.541z"/>
		<path fill-rule="evenodd" clip-rule="evenodd" fill="#404041" d="M103.158,77.356c-0.166,0.09-0.305,0.075-0.448,0.055
			c-0.665-0.105-2.615-0.361-4.462-0.651l-0.059,0.104c0.852,1.098,1.859,2.395,2.617,3.39c0.15,0.211,0.27,0.416,0.273,0.6
			c-0.004,0.142-0.06,0.313-0.117,0.423l0.039,0.033l0.866-1.488l-0.044-0.018c-0.12,0.191-0.457,0.674-0.666,0.556
			c-0.078-0.048-0.195-0.172-0.298-0.286c-0.149-0.156-0.448-0.504-0.652-0.773l0.847-1.436l1.301,0.21
			c0.062,0.011,0.134,0.026,0.18,0.069c0.124,0.108-0.057,0.521-0.16,0.729l0.041,0.027l1.068-1.827l-0.037-0.025
			C103.374,77.153,103.27,77.282,103.158,77.356z M100.148,79.226l-1.346-1.711l2.154,0.334L100.148,79.226z"/>
		<path fill-rule="evenodd" clip-rule="evenodd" fill="#404041" d="M99.758,73.472c-0.09,0.203,0.014,0.459,0.221,0.553
			c0.203,0.087,0.454-0.006,0.545-0.211c0.096-0.225-0.014-0.474-0.231-0.566C100.099,73.159,99.859,73.243,99.758,73.472z"/>
		<path fill-rule="evenodd" clip-rule="evenodd" fill="#404041" d="M104.296,74.887c-0.098,0.093-0.231,0.099-0.372,0.039
			l-2.399-1.068l-0.034,0.017l-0.403,1.092l0.033,0.019c0.057-0.103,0.161-0.274,0.241-0.325c0.113-0.07,0.27-0.07,0.398-0.025
			l1.947,0.866c0.135,0.065,0.217,0.155,0.204,0.288c-0.011,0.096-0.033,0.176-0.073,0.291l0.038,0.023l0.649-1.459l-0.047-0.02
			C104.429,74.729,104.381,74.812,104.296,74.887z"/>
		<path fill-rule="evenodd" clip-rule="evenodd" fill="#404041" d="M105.305,72.236c-0.088,0.099-0.212,0.121-0.349,0.073
			l-1.923-0.659c-0.116-0.126-0.317-0.509-0.207-0.815c0.091,0.087,0.164,0.141,0.228,0.16c0.216,0.072,0.38-0.024,0.453-0.231
			c0.071-0.216-0.053-0.395-0.29-0.477c-0.207-0.069-0.443,0.032-0.524,0.271c-0.093,0.264-0.042,0.645,0.214,1.034l-0.007,0.011
			l-0.45-0.147l-0.037,0.01l-0.283,1.063l0.04,0.017c0.044-0.113,0.11-0.227,0.19-0.287c0.104-0.074,0.257-0.091,0.394-0.051
			l2.017,0.686c0.143,0.051,0.23,0.136,0.23,0.273c-0.007,0.096-0.017,0.176-0.054,0.297l0.044,0.014l0.557-1.622l-0.043-0.017
			C105.457,71.962,105.387,72.141,105.305,72.236z"/>
		<path fill-rule="evenodd" clip-rule="evenodd" fill="#404041" d="M105.961,67.235c0.346,0.345,0.512,0.625,0.395,1.139
			c-0.17,0.75-0.915,0.818-1.76,0.624l-0.113-0.026l0.447-1.956l-0.057-0.015c-0.638-0.145-1.299,0.045-1.508,0.948
			c-0.199,0.874,0.442,1.555,1.225,1.737c0.87,0.197,1.699-0.098,1.929-1.088c0.128-0.557-0.101-1.07-0.515-1.412L105.961,67.235z
			 M103.43,67.97c0.115-0.5,0.75-0.456,1.276-0.334l-0.29,1.318C103.734,68.778,103.337,68.387,103.43,67.97z"/>
		<path fill-rule="evenodd" clip-rule="evenodd" fill="#404041" d="M106.342,63.708c-0.547-0.07-0.842,0.256-1.089,0.783
			c-0.247,0.538-0.363,0.791-0.747,0.746c-0.244-0.035-0.537-0.242-0.488-0.65c0.061-0.469,0.572-0.748,0.973-0.842l0.003-0.055
			l-0.932-0.068l-0.004,0.061l0.168,0.141c-0.134,0.15-0.231,0.4-0.274,0.758c-0.073,0.625,0.265,1.049,0.755,1.113
			c0.574,0.07,0.882-0.385,1.065-0.79c0.26-0.617,0.431-0.792,0.781-0.746c0.324,0.044,0.607,0.274,0.547,0.743
			c-0.062,0.541-0.821,0.912-1.166,0.973l-0.002,0.059l1.035,0.088l0.01-0.064l-0.217-0.141c0.133-0.104,0.35-0.448,0.4-0.869
			C107.238,64.319,106.939,63.779,106.342,63.708z"/>
	</g>
</g>
</svg>
